<svg enable-background="new 0 0 24 24" viewBox="0 0 24 24" xmlns="http://www.w3.org/2000/svg"><path d="m12 2.2c-4.3 0-8.8 1.3-8.8 3.8v6 1.3h.4 1.1 1.5c-.9-.4-1.5-.9-1.5-1.3v-3.8c1.7 1 4.5 1.6 7.2 1.6 2.8 0 5.6-.5 7.2-1.6v3.8c0 .9-2.9 2.2-7.2 2.2-1.5 0-2.9-.2-4-.4.2.3.3.6.3.9v.7c1.2.2 2.4.3 3.7.3 2.8 0 5.6-.5 7.2-1.6v3.9c0 .9-2.9 2.2-7.2 2.2-1.4 0-2.6-.1-3.7-.4v1.5c1.2.2 2.4.3 3.7.3 4.3 0 8.8-1.3 8.8-3.8v-6-5.8c.1-2.5-4.4-3.8-8.7-3.8zm0 6c-4.4 0-7.2-1.3-7.2-2.2s2.8-2.2 7.2-2.2 7.2 1.4 7.2 2.2-2.8 2.2-7.2 2.2z"/><path d="m7.3 14.7c0-.3-.2-.5-.5-.5h-2-1.6-2.3c-.3 0-.5.2-.5.5v8.3c0 .3.2.5.5.5h5.9c.3 0 .5-.2.5-.5v-1.8-1.6-4.4zm-2 5.8v1.5c0 .1 0 .1-.1.2s-.1.1-.2.1h-1.2c-.1 0-.1 0-.2-.1s0-.2 0-.2v-2.8-1.4l-.4.3-.8.6h-.1c-.1 0-.1 0-.2-.1l-.6-.7v-.1c0-.1 0-.2.1-.2l1.7-1.3.4-.3c.1 0 .1-.1.2-.1h.9.3c.1 0 .1 0 .2.1s.1.1.1.2v2.6 1.7z"/></svg>